# xmcd
#
# Track frame offsets: 
#        150
#        20542
#        35385
#        56890
#        74123
#        96082
#        117703
#        136848
#        153024
#        170026
#        193432
#        211427
#        231201
#
# Disc length: 3262 seconds
#
# Revision: 4
# Processed by: cddbd v1.5.2PL0 Copyright (c) Steve Scherf et al.
# Submitted via: ExactAudioCopyFreeDBPlugin 1.0
#
DISCID=c60cbc0d
DTITLE=Annekei - Tsuki
DYEAR=2007
DGENRE=Jazz
TTITLE0=Tsuki
TTITLE1=That's All
TTITLE2=Arigato Gozaimasu
TTITLE3=Only You
TTITLE4=Both Sides Now
TTITLE5=Dirt in Your Pocket
TTITLE6=Everly
TTITLE7=Why?
TTITLE8=Refill of Inspiration
TTITLE9=What You Like
TTITLE10=What is Your Problem?
TTITLE11=Towani
TTITLE12=At Home
EXTD=
EXTT0=
EXTT1=
EXTT2=
EXTT3=
EXTT4=
EXTT5=
EXTT6=
EXTT7=
EXTT8=
EXTT9=
EXTT10=
EXTT11=
EXTT12=
PLAYORDER=
